# xmcd
#
# Track frame offsets:
#	150
#	17592
#	39842
#	70522
#	103382
#	127065
#	158442
#
# Disc length: 2391 seconds
# Revision: 0
# Processed by: cddbd v1.5.2PL0 Copyright (c) Steve Scherf et al.
# Submitted via: dBpowerAMP V12.0
#
DISCID=4e095507
DTITLE=West End - It's Raining Men
DYEAR=1996
DGENRE=House
TTITLE0=It's Raining Men [Radio Edit]
TTITLE1=It's Raining Men [4.55 Mix]
TTITLE2=It's Raining Men [New 12” Master]
TTITLE3=It's Raining Men [Wand's Main Mix]
TTITLE4=It's Raining Men [Wand's Dub Mix]
TTITLE5=It's Raining Men [Motiv 8 Storming Vocal Mix]
TTITLE6=It's Raining Men [Hi Pressure Dub]
EXTD=
EXTT0=
EXTT1=
EXTT2=
EXTT3=
EXTT4=
EXTT5=
EXTT6=
PLAYORDER=
